{"title":"Big.Brother.AU.S11E44.PDTV.x264-NoGRP","uid":11379265,"size":279568412,"categoryP":"video","categoryS":"tv_shows","magnet":"?xt=urn:btih:bb49ac84a27d23a0526abb56145029c2ef262431&amp;dn=Big.Brother.AU.S11E44.PDTV.x264-NoGRP&amp;tr=udp%3A%2F%2Ftracker.openbittorrent.com%3A80&amp;tr=udp%3A%2F%2Fopen.demonii.com%3A1337&amp;tr=udp%3A%2F%2Ftracker.coppersurfer.tk%3A6969&amp;tr=udp%3A%2F%2Fexodus.desync.com%3A6969","seeders":1,"leechers":0,"uploader":"whowhatwhen2","files":1,"time":1415193747,"description":"Big.Brother.AU.S11E44.PDTV.x264-NoGRP\n\nFormat : MPEG-4\nCodec ID : mp42\nFile size : 267 MiB\nDuration : 45mn 16s\nOverall bit rate mode : Variable\nOverall bit rate : 823 Kbps\n\n\nVideo\nFormat : AVC\nFormat/Info : Advanced Video Codec\nFormat profile : &lt;a class=&quot;__cf_email__&quot; href=&quot;/cdn-cgi/l/email-protection&quot; data-cfemail=&quot;5e163739361e126d706f&quot;&gt;[email&amp;#160;protected]&lt;/a&gt;&lt;script cf-hash='f9e31' type=&quot;text/javascript&quot;&gt;\n/* &lt;![CDATA[ */!function(){try{var t=&quot;currentScript&quot;in document?document.currentScript:function(){for(var t=document.getElementsByTagName(&quot;script&quot;),e=t.length;e--;)if(t[e].getAttribute(&quot;cf-hash&quot;))return t[e]}();if(t&amp;&amp;t.previousSibling){var e,r,n,i,c=t.previousSibling,a=c.getAttribute(&quot;data-cfemail&quot;);if(a){for(e=&quot;&quot;,r=parseInt(a.substr(0,2),16),n=2;a.length-n;n+=2)i=parseInt(a.substr(n,2),16)^r,e+=String.fromCharCode(i);e=document.createTextNode(e),c.parentNode.replaceChild(e,c)}}}catch(u){}}();/* ]]&gt; */&lt;/script&gt;\nFormat settings, CABAC : Yes\nFormat settings, ReFrames : 4 frames\nCodec ID : avc1\nDuration : 45mn 16s\nBit rate : 659 Kbps\nWidth : 720 pixels\nHeight : 400 pixels\nDisplay aspect ratio : 16:9\nFrame rate mode : Variable\nFrame rate : 25.000 fps\nMinimum frame rate : 25.000 fps\nMaximum frame rate : 64.057 fps\nColor space : YUV\nChroma subsampling : 4:2:0\nBit depth : 8 bits\nScan type : Progressive\nBits/(Pixel*Frame) : 0.092\nStream size : 213 MiB (80%)\nWriting library : x264 core 130 r2273 b3065e6\n\nAudio\nID : 2\nFormat : AAC\nFormat/Info : Advanced Audio Codec\nFormat profile : LC\nCodec ID : 40\nDuration : 45mn 16s\nBit rate mode : Variable\nBit rate : 160 Kbps\nMaximum bit rate : 201 Kbps\nChannel(s) : 2 channels\nChannel positions : Front: L R\nSampling rate : 48.0 KHz\nCompression mode : Lossy\nStream size : 51.8 MiB (19%)\nLanguage : English","torrent":{"xt":"urn:btih:bb49ac84a27d23a0526abb56145029c2ef262431","amp;dn":"Big.Brother.AU.S11E44.PDTV.x264-NoGRP","amp;tr":["udp%3A%2F%2Ftracker.openbittorrent.com%3A80","udp%3A%2F%2Fopen.demonii.com%3A1337","udp%3A%2F%2Ftracker.coppersurfer.tk%3A6969","udp%3A%2F%2Fexodus.desync.com%3A6969"],"infoHash":"bb49ac84a27d23a0526abb56145029c2ef262431","infoHashBuffer":{"type":"Buffer","data":[187,73,172,132,162,125,35,160,82,106,187,86,20,80,41,194,239,38,36,49]},"announce":[],"urlList":[]}}